<?xml version="1.0" standalone="no"?>
<!DOCTYPE svg PUBLIC "-//W3C//DTD SVG 20010904//EN"
 "http://www.w3.org/TR/2001/REC-SVG-20010904/DTD/svg10.dtd">
<svg version="1.0" xmlns="http://www.w3.org/2000/svg"
 width="800.000000pt" height="800.000000pt" viewBox="0 0 800.000000 800.000000"
 preserveAspectRatio="xMidYMid meet">

<g transform="translate(0.000000,800.000000) scale(0.100000,-0.100000)"
fill="#000000" stroke="none">
<path d="M3959 7967 c-31 -18 -63 -37 -70 -43 -8 -6 -38 -23 -66 -36 -29 -14
-50 -28 -46 -31 3 -4 0 -7 -9 -7 -8 0 -32 -13 -54 -30 -21 -16 -47 -30 -56
-30 -10 0 -18 -3 -18 -7 0 -5 -21 -21 -48 -38 -56 -35 -58 -37 -97 -71 -29
-25 -30 -28 -30 -116 0 -68 4 -93 15 -101 8 -7 21 -30 29 -52 8 -22 17 -42 20
-45 12 -10 31 -50 31 -66 0 -9 9 -28 19 -43 11 -15 21 -34 23 -41 2 -8 9 -21
16 -28 6 -7 12 -20 12 -28 0 -8 5 -14 10 -14 6 0 10 -6 10 -13 0 -7 9 -23 20
-35 11 -12 20 -25 20 -29 0 -14 44 -96 62 -117 10 -11 20 -28 24 -38 3 -10 10
-16 15 -13 5 4 9 -3 9 -14 0 -12 3 -21 8 -21 9 0 32 -49 32 -69 0 -12 2 -13 8
-3 6 8 13 1 22 -23 8 -19 19 -35 24 -35 6 0 -2 -7 -18 -15 -15 -8 -36 -15 -45
-15 -14 0 -14 -2 -1 -10 10 -7 11 -10 2 -10 -18 0 -89 -49 -135 -91 -43 -41
-58 -45 -222 -59 -101 -8 -198 -20 -330 -39 -27 -3 -57 -11 -65 -16 -8 -5 -37
-13 -65 -17 -85 -12 -115 -20 -115 -29 0 -5 -8 -9 -17 -9 -22 0 -127 -42 -131
-52 -2 -5 -12 -8 -22 -8 -10 0 -22 -4 -25 -10 -3 -5 -22 -10 -41 -10 -19 0
-33 -4 -29 -9 5 -8 -25 -24 -132 -72 -18 -7 -33 -17 -33 -21 0 -5 -8 -8 -19
-8 -10 0 -32 -13 -49 -30 -18 -16 -36 -30 -42 -30 -5 0 -20 18 -32 40 -13 22
-30 40 -38 41 -10 0 -11 2 -3 6 9 3 7 11 -7 26 -11 11 -20 29 -20 39 0 11 -4
16 -10 13 -5 -3 -10 1 -10 9 0 9 -4 16 -10 16 -5 0 -10 9 -10 20 0 11 -4 20
-9 20 -4 0 -29 26 -54 58 -47 59 -77 94 -127 150 -17 18 -30 37 -30 43 0 6 -4
8 -9 5 -5 -3 -19 10 -32 29 -13 19 -27 35 -31 35 -5 0 -8 8 -8 17 0 9 -3 14
-6 10 -7 -6 -27 11 -132 111 -43 39 -80 72 -84 72 -5 0 -16 8 -26 18 -10 9
-36 31 -57 47 -21 17 -48 38 -59 47 -48 39 -83 64 -110 78 -16 8 -42 27 -57
43 -15 15 -35 27 -43 27 -9 0 -16 4 -16 8 0 5 -16 14 -35 22 -19 8 -35 18 -35
22 0 10 -90 53 -102 50 -5 -1 -8 5 -8 13 0 8 -9 15 -20 15 -11 0 -20 5 -20 10
0 6 -7 10 -15 10 -8 0 -15 4 -15 9 0 5 -15 14 -32 21 -81 30 -180 84 -172 93
4 4 -2 7 -14 7 -12 0 -36 9 -54 20 -18 11 -41 20 -50 20 -10 0 -18 4 -18 9 0
5 -10 13 -22 16 -42 13 -118 50 -118 57 0 5 -9 8 -20 8 -11 0 -20 5 -20 10 0
6 -13 10 -29 10 -17 0 -33 5 -36 10 -3 6 -19 10 -36 10 -16 0 -29 5 -29 10 0
6 -29 10 -66 10 -81 0 -120 -23 -130 -75 -3 -19 -11 -35 -16 -35 -6 0 -8 -32
-5 -77 3 -59 13 -103 41 -178 21 -55 40 -115 43 -132 3 -18 8 -33 12 -33 3 0
12 -15 19 -32 8 -18 22 -50 33 -71 10 -22 19 -45 19 -52 0 -15 52 -119 61
-123 4 -2 13 -23 20 -48 7 -24 17 -44 21 -44 4 0 8 -9 8 -20 0 -11 3 -20 8
-20 8 0 32 -49 32 -67 0 -7 5 -13 10 -13 6 0 10 -7 10 -15 0 -14 26 -63 40
-75 6 -5 30 -56 61 -127 8 -18 17 -33 21 -33 5 0 8 -7 8 -15 0 -8 9 -24 20
-35 11 -11 20 -27 20 -35 0 -8 16 -39 35 -69 19 -30 35 -60 35 -66 0 -5 5 -10
10 -10 6 0 10 -7 10 -15 0 -8 5 -15 10 -15 6 0 10 -11 10 -25 0 -14 4 -25 9
-25 5 0 31 -43 57 -95 27 -52 50 -92 53 -89 4 4 46 -77 43 -83 -1 -2 10 -14
23 -29 13 -14 27 -35 30 -45 4 -11 11 -19 16 -19 5 0 9 -6 9 -13 0 -11 55 -93
90 -134 5 -7 10 -15 10 -18 0 -4 6 -12 13 -19 6 -7 23 -27 37 -46 14 -18 37
-46 53 -61 15 -16 27 -31 27 -34 0 -3 9 -15 20 -27 11 -12 20 -28 20 -36 0
-19 -20 -54 -42 -73 -10 -9 -18 -19 -18 -23 0 -3 -9 -15 -20 -26 -11 -11 -20
-27 -20 -35 0 -8 -4 -15 -10 -15 -5 0 -10 -6 -10 -14 0 -7 -11 -22 -25 -32
-14 -10 -25 -24 -25 -31 0 -7 -4 -13 -10 -13 -5 0 -10 -6 -10 -12 0 -11 -16
-34 -62 -88 -7 -8 -12 -15 -10 -15 8 0 -19 -55 -27 -55 -5 0 -12 -11 -15 -24
-3 -14 -12 -31 -19 -38 -19 -21 -37 -56 -37 -73 0 -8 -4 -15 -10 -15 -5 0 -10
-9 -10 -19 0 -10 -7 -22 -16 -25 -8 -3 -12 -10 -9 -16 3 -5 1 -10 -4 -10 -6 0
-11 -6 -11 -14 0 -8 -4 -16 -9 -18 -5 -1 -20 -29 -35 -60 -14 -32 -30 -58 -36
-58 -5 0 -10 -9 -10 -19 0 -11 -5 -23 -10 -26 -6 -3 -10 -17 -10 -31 0 -13 -4
-24 -8 -24 -11 0 -32 -46 -32 -69 0 -11 -7 -21 -15 -25 -8 -3 -15 -15 -15 -26
0 -11 -4 -28 -9 -38 -5 -9 -15 -38 -23 -64 -7 -27 -16 -48 -20 -48 -4 0 -8
-13 -8 -30 0 -16 -4 -30 -8 -30 -11 0 -43 -112 -49 -176 -3 -30 -10 -57 -14
-60 -5 -3 -9 -27 -9 -54 0 -26 -5 -50 -11 -52 -11 -4 -23 -86 -35 -235 -4 -46
-11 -83 -15 -83 -5 0 -9 -76 -9 -170 0 -95 4 -170 9 -170 5 0 11 -24 14 -52 7
-76 23 -142 36 -146 6 -2 11 -19 11 -37 0 -19 4 -36 9 -39 5 -3 11 -20 14 -38
3 -18 10 -51 17 -73 7 -22 14 -55 17 -72 3 -18 9 -33 14 -33 5 0 9 -20 9 -45
0 -25 5 -45 10 -45 6 0 10 -5 10 -11 0 -37 43 -148 69 -176 16 -17 30 -30 32
-28 2 1 14 -17 25 -41 l22 -44 -132 0 c-141 0 -209 -7 -200 -21 3 -5 -15 -9
-39 -9 -27 0 -49 -6 -57 -15 -7 -9 -29 -15 -51 -15 -22 0 -39 -4 -39 -10 0 -5
-8 -10 -18 -10 -9 0 -34 -9 -54 -19 -19 -11 -39 -17 -42 -14 -3 4 -6 -1 -6
-10 0 -12 -8 -17 -26 -17 -24 0 -55 -19 -108 -66 -10 -9 -30 -20 -45 -23 l-26
-7 -2 -130 c-2 -115 0 -126 12 -99 7 16 12 45 10 64 -2 26 2 35 16 38 21 6 26
23 7 23 -9 0 -9 3 0 12 7 7 12 20 12 29 0 9 13 22 29 29 16 6 32 19 35 27 4
10 14 13 29 9 12 -3 29 -1 37 4 13 8 12 10 -2 10 -10 0 -18 5 -18 10 0 6 16
10 35 10 24 0 35 5 35 15 0 8 9 15 19 15 11 0 23 5 26 10 3 6 17 10 31 10 14
0 27 7 30 15 5 11 24 15 78 16 39 1 61 4 48 6 -31 6 -18 23 18 23 15 0 30 6
32 13 4 9 49 13 171 15 141 3 167 6 167 19 0 8 6 13 13 10 6 -2 11 -10 10 -16
-2 -6 6 -11 16 -11 24 0 36 -16 19 -23 -10 -4 -9 -6 1 -6 18 -1 52 -41 45 -52
-3 -5 3 -9 13 -10 16 0 16 -1 -2 -9 -11 -4 -29 -6 -41 -3 -12 2 -28 -3 -37
-11 -8 -9 -21 -16 -27 -16 -6 0 -13 -7 -16 -15 -4 -8 -12 -15 -19 -15 -22 0
-75 -31 -70 -41 4 -5 -5 -9 -20 -9 -14 0 -28 -7 -31 -15 -4 -8 -15 -15 -26
-15 -11 0 -32 -12 -47 -27 -64 -67 -123 -108 -135 -95 -4 3 -4 -1 -1 -10 4
-11 -1 -20 -17 -29 -13 -6 -27 -18 -31 -25 -4 -8 -15 -14 -22 -14 -8 0 -15 -9
-15 -20 0 -18 -36 -47 -52 -42 -4 1 -12 -14 -18 -34 -7 -19 -14 -33 -17 -30
-6 6 -71 -73 -79 -96 -4 -10 -10 -18 -15 -18 -5 0 -9 -7 -9 -15 0 -8 -4 -15
-10 -15 -5 0 -10 -8 -10 -19 0 -10 -7 -24 -15 -31 -8 -7 -15 -19 -15 -27 0 -8
-5 -11 -12 -7 -7 5 -9 2 -5 -9 4 -10 -3 -25 -18 -39 -14 -13 -25 -35 -25 -49
0 -23 -4 -26 -25 -21 -14 2 -25 11 -25 18 0 8 -4 14 -10 14 -5 0 -10 9 -10 21
0 15 -5 19 -15 15 -12 -4 -15 3 -15 37 0 23 -5 49 -10 57 -16 25 -13 -232 3
-264 8 -14 17 -23 20 -19 4 3 7 -8 7 -26 0 -18 -4 -30 -9 -27 -20 13 -24 -82
-28 -566 l-3 -508 40 0 c35 0 40 3 40 23 -1 12 -7 33 -15 47 -8 14 -15 43 -15
65 0 56 -10 90 -21 74 -4 -8 -8 61 -7 151 0 91 -2 171 -4 179 -1 7 3 16 10 18
6 3 12 -2 12 -11 0 -9 11 -18 24 -22 14 -3 27 -12 30 -21 3 -8 10 -11 16 -8 6
3 10 -4 10 -17 0 -13 12 -34 25 -47 14 -13 28 -34 31 -47 3 -13 12 -24 20 -24
8 0 14 -8 14 -17 0 -9 8 -25 17 -35 15 -17 15 -21 3 -30 -13 -8 -12 -9 2 -5
15 5 34 -17 30 -35 -1 -5 3 -8 9 -8 6 0 9 -7 5 -15 -3 -8 -1 -15 4 -15 6 0 10
-7 10 -15 0 -8 5 -15 10 -15 6 0 10 -7 10 -15 0 -8 9 -19 20 -25 11 -6 19 -14
18 -18 -2 -4 10 -20 25 -36 29 -31 35 -62 15 -68 -7 -3 30 -5 82 -5 52 -1 87
1 77 4 -9 2 -17 9 -17 14 0 5 -7 9 -16 9 -8 0 -12 5 -8 11 3 6 3 14 -2 18 -5
3 -30 33 -55 66 -49 64 -79 119 -79 143 0 9 -3 12 -6 9 -8 -7 -44 36 -44 52 0
6 -5 11 -10 11 -6 0 -10 6 -9 13 3 22 -1 40 -7 34 -8 -8 -54 59 -54 78 0 8 -6
15 -12 15 -9 0 -8 4 2 10 13 8 12 10 -4 10 -13 0 -16 5 -12 17 4 10 4 14 0 11
-3 -4 -18 4 -32 17 -23 21 -24 26 -11 41 12 16 12 17 -3 11 -19 -7 -51 18 -62
48 -5 14 -9 16 -15 7 -6 -10 -12 -4 -21 17 -7 17 -15 31 -19 31 -4 0 -6 19 -6
42 0 36 4 44 21 46 11 2 32 -8 48 -23 15 -14 29 -25 32 -25 3 0 29 -18 59 -40
30 -22 58 -40 63 -40 5 0 19 -11 32 -24 12 -14 34 -28 49 -31 15 -3 40 -17 55
-30 16 -14 37 -25 47 -25 13 0 16 -5 12 -17 -5 -12 -2 -15 9 -11 9 4 28 0 44
-9 16 -8 39 -17 52 -19 12 -3 31 -13 41 -23 11 -11 34 -22 52 -26 37 -7 100
-35 110 -48 3 -4 23 -10 45 -13 21 -3 41 -8 44 -13 3 -5 26 -11 52 -15 29 -4
49 -13 53 -24 5 -13 8 -14 14 -3 6 9 11 10 15 2 4 -6 16 -11 27 -11 10 0 19
-4 19 -10 0 -5 23 -10 50 -10 28 0 50 -4 50 -10 0 -5 -4 -10 -10 -10 -5 0 -7
-13 -3 -30 4 -23 2 -30 -9 -30 -10 0 -17 -13 -21 -33 -3 -18 -19 -62 -36 -98
-17 -36 -31 -71 -31 -77 0 -9 242 -12 961 -12 l961 0 -5 138 c-9 211 -16 268
-43 341 -13 36 -34 93 -45 125 -11 33 -34 89 -50 124 -16 36 -29 70 -29 76 -1
6 -9 29 -20 51 -11 22 -19 43 -20 48 0 4 -16 30 -35 57 -19 27 -35 53 -35 57
0 9 -45 53 -53 53 -3 0 -20 13 -37 28 -38 35 -114 77 -157 86 -17 4 -47 23
-66 41 -35 34 -36 35 -23 77 15 55 44 70 111 62 28 -3 60 -12 72 -20 12 -8 29
-14 37 -14 12 0 49 -25 155 -104 8 -6 39 -36 68 -66 71 -72 116 -150 170 -295
8 -22 23 -58 33 -80 30 -64 60 -143 60 -154 0 -6 8 -30 19 -54 37 -84 51 -133
52 -192 1 -33 8 -70 16 -82 7 -12 13 -39 13 -58 0 -20 5 -45 10 -56 7 -13 7
-19 0 -19 -6 0 -10 -31 -10 -79 0 -54 -4 -81 -12 -84 -7 -3 563 -6 1268 -6
l1281 -1 7 77 c3 42 6 145 6 229 0 84 4 164 10 178 5 15 13 62 16 107 4 46 15
96 26 117 10 20 18 45 18 57 0 11 18 56 40 100 22 44 40 86 40 93 0 6 4 12 9
12 5 0 12 12 15 26 12 47 58 108 159 211 114 117 144 131 196 93 35 -24 47
-57 36 -97 -3 -15 -48 -69 -102 -122 -63 -63 -104 -113 -122 -150 -15 -31 -32
-65 -38 -76 -43 -77 -90 -224 -98 -306 -4 -35 -10 -75 -15 -89 -5 -14 -10
-123 -12 -243 l-3 -217 513 0 c500 0 512 0 512 19 0 11 -4 23 -10 26 -5 3 -10
19 -10 35 0 16 -4 32 -10 35 -5 3 -10 19 -10 36 0 16 -3 29 -7 29 -11 0 -33
50 -33 76 0 12 -7 27 -15 34 -8 7 -15 22 -15 34 0 26 -41 126 -52 126 -4 0 -8
7 -8 15 0 24 -24 95 -32 95 -5 0 -8 12 -8 26 0 14 -4 23 -10 19 -5 -3 -10 3
-10 14 0 12 -4 21 -10 21 -5 0 -10 8 -10 18 0 10 -6 26 -14 37 -7 11 -19 37
-25 58 -7 20 -16 35 -20 32 -5 -2 -14 14 -21 35 -7 22 -19 45 -27 51 -7 6 -13
17 -13 24 0 7 -7 18 -15 25 -8 7 -15 20 -15 30 0 10 -6 20 -14 23 -8 3 -19 22
-26 41 -6 20 -16 34 -21 31 -5 -4 -9 5 -9 18 0 14 -6 27 -14 30 -13 5 -23 20
-58 87 -7 13 -26 39 -43 57 -50 54 -55 61 -55 83 0 14 7 20 21 20 11 0 17 5
14 10 -3 6 5 10 19 10 19 0 24 4 19 15 -3 9 -2 15 3 13 18 -4 54 14 54 28 0 8
6 14 13 14 7 0 26 14 42 30 16 17 35 30 42 30 7 0 13 5 13 10 0 6 7 10 15 10
8 0 15 6 15 13 0 8 11 20 25 27 14 7 25 17 25 22 0 4 7 8 15 8 8 0 15 5 15 11
0 5 14 15 31 21 23 8 27 13 17 19 -10 7 -9 9 3 9 9 0 27 11 40 25 13 13 29 25
35 25 14 0 144 125 144 139 0 6 6 11 13 11 6 0 28 23 47 51 19 28 44 61 55 74
44 51 55 65 55 70 0 5 27 39 53 67 9 10 17 22 17 27 0 6 9 26 21 45 12 20 17
36 12 36 -4 0 0 5 10 11 9 5 17 19 17 29 0 11 5 20 10 20 6 0 10 9 10 21 0 11
4 18 9 15 10 -6 31 37 31 64 0 11 4 20 10 20 5 0 13 12 16 27 4 16 10 33 13
38 4 6 17 37 30 70 12 33 27 68 32 77 5 10 9 32 9 48 0 17 4 29 8 26 9 -6 32
80 32 119 0 13 5 27 10 30 6 3 10 35 10 71 0 35 4 64 8 64 5 0 17 48 27 108
10 59 22 111 26 117 11 11 12 419 2 429 -11 11 -32 114 -32 161 -1 22 -4 51
-8 64 -6 23 -7 23 -14 5 -4 -11 -8 19 -8 72 -1 50 -5 104 -10 120 -5 16 -15
75 -22 132 -7 61 -16 98 -21 90 -4 -8 -8 6 -8 34 0 26 -4 50 -10 53 -5 3 -10
21 -10 39 0 19 -7 47 -15 62 -8 16 -18 45 -21 64 -4 19 -17 49 -29 65 -13 17
-28 56 -35 88 -6 31 -15 57 -19 57 -3 0 -13 21 -20 48 -8 26 -19 50 -24 54 -6
3 -12 15 -13 25 -2 11 -10 33 -19 49 -8 16 -15 37 -15 46 0 9 -5 20 -10 23 -6
4 -18 24 -27 46 -8 21 -19 39 -24 39 -5 0 -9 7 -9 15 0 18 -34 80 -60 107 -11
12 -17 25 -14 29 2 4 -4 14 -14 21 -11 7 -19 16 -18 20 0 3 -14 23 -31 43 -18
20 -33 39 -33 41 0 3 -10 16 -22 30 -13 14 -32 35 -43 48 -11 12 -31 39 -45
59 -14 20 -28 37 -32 37 -5 0 -8 7 -8 16 0 8 -4 12 -10 9 -5 -3 -10 -1 -10 4
0 6 5 11 10 11 6 0 10 6 10 14 0 8 3 16 8 18 4 2 19 21 35 44 15 22 36 50 47
62 11 12 20 26 20 32 0 5 4 10 8 10 5 0 15 12 23 28 8 15 22 35 33 45 10 9 16
17 12 17 -4 0 0 7 8 16 9 8 16 21 16 27 0 7 11 25 25 40 14 15 24 27 21 27 -3
0 6 16 19 36 14 20 25 44 25 53 0 14 2 14 10 1 7 -11 10 -7 10 19 0 19 3 31 7
28 3 -4 14 11 24 33 10 22 23 40 29 40 5 0 10 9 10 20 0 11 4 20 9 20 5 0 11
13 14 29 3 16 12 35 19 42 7 8 19 26 27 42 8 15 18 27 23 27 4 0 8 9 8 21 0
11 7 27 15 36 8 8 13 19 10 24 -4 5 1 9 9 9 9 0 16 9 16 20 0 11 5 20 10 20 6
0 10 8 10 18 0 10 9 28 20 40 11 12 20 27 20 33 0 7 11 27 25 45 14 18 25 38
25 44 0 11 17 48 41 90 5 8 17 31 27 50 9 19 20 37 25 38 4 2 7 10 7 18 0 8 4
22 9 32 5 9 15 31 22 49 7 17 17 29 21 27 4 -3 8 6 8 20 0 14 5 28 10 31 6 3
10 14 10 25 0 10 7 20 15 24 8 3 15 12 15 20 0 24 22 66 31 60 5 -3 9 6 9 21
0 14 4 34 10 45 6 11 15 29 20 40 6 11 10 27 10 35 0 8 4 15 8 15 4 0 14 21
21 48 8 26 18 52 23 59 5 6 18 49 29 95 32 127 15 298 -29 298 -8 0 -12 6 -8
15 4 13 -8 15 -74 15 -43 0 -81 -4 -84 -9 -3 -4 -39 -20 -81 -36 -41 -15 -78
-31 -81 -36 -3 -5 -14 -9 -25 -9 -10 0 -19 -4 -19 -10 0 -5 -11 -10 -25 -10
-14 0 -25 -3 -25 -8 0 -4 -15 -13 -32 -20 -18 -7 -41 -18 -50 -23 -10 -5 -28
-9 -40 -9 -12 0 -18 -3 -15 -7 8 -7 -38 -33 -59 -33 -8 0 -14 -7 -14 -15 0 -8
-9 -15 -19 -15 -11 0 -23 -4 -26 -10 -3 -5 -21 -10 -38 -11 -27 0 -29 -2 -12
-9 17 -7 17 -9 3 -9 -10 -1 -39 -13 -65 -28 -26 -14 -64 -35 -83 -46 -19 -11
-37 -22 -40 -26 -10 -12 -50 -31 -65 -31 -9 0 -13 -4 -10 -10 3 -5 -1 -10 -9
-10 -14 0 -37 -15 -71 -47 -7 -6 -32 -21 -57 -33 -25 -11 -62 -36 -83 -55 -21
-19 -41 -35 -45 -35 -4 0 -21 -13 -38 -29 -17 -17 -48 -41 -69 -54 -21 -14
-49 -35 -63 -48 -13 -13 -28 -23 -32 -21 -5 1 -8 -2 -8 -8 0 -5 -12 -16 -27
-24 -16 -8 -24 -15 -20 -16 12 0 -75 -80 -88 -80 -5 0 -16 -14 -23 -30 -8 -17
-17 -28 -22 -25 -9 6 -50 -47 -50 -64 0 -6 -6 -11 -14 -11 -8 0 -21 -9 -29
-20 -8 -11 -17 -17 -20 -13 -4 3 -7 1 -7 -6 0 -6 -10 -22 -22 -35 -13 -13 -36
-40 -53 -61 -16 -20 -43 -52 -60 -69 -16 -18 -31 -38 -33 -45 -1 -7 -9 -20
-17 -28 -9 -8 -13 -18 -10 -23 3 -5 -4 -11 -15 -15 -18 -6 -24 -17 -21 -37 0
-5 -5 -8 -11 -8 -7 0 -24 -24 -38 -53 -35 -74 -37 -76 -84 -59 -23 7 -45 18
-51 23 -5 5 -25 9 -44 9 -34 0 -89 14 -123 31 -10 5 -27 9 -37 9 -11 0 -23 5
-26 10 -3 6 -19 10 -36 10 -16 0 -29 5 -29 10 0 6 -14 10 -30 10 -17 0 -38 4
-48 10 -9 5 -52 17 -94 26 -43 9 -76 20 -73 24 3 4 -37 10 -88 13 -50 4 -135
11 -187 16 -52 6 -141 14 -197 17 -57 4 -103 9 -103 12 0 7 62 62 71 62 4 0
20 11 34 24 34 31 42 84 21 127 -9 17 -16 38 -16 46 0 7 -7 16 -15 19 -8 4
-15 17 -15 30 0 13 -4 24 -10 24 -5 0 -10 11 -10 25 0 14 -4 25 -10 25 -5 0
-10 7 -10 15 0 8 -4 15 -10 15 -5 0 -10 5 -10 10 0 6 7 10 15 10 9 0 18 7 21
15 4 8 12 15 20 15 8 0 14 5 14 10 0 6 11 10 25 10 14 0 25 4 25 8 0 5 16 14
35 22 19 8 35 17 35 22 0 4 9 8 21 8 11 0 18 4 14 10 -3 5 13 14 35 20 22 6
40 15 40 20 0 6 9 10 20 10 10 0 23 6 27 13 8 12 83 52 95 49 3 -1 12 5 18 13
7 8 23 15 37 15 13 0 22 4 19 9 -4 5 13 16 36 23 23 8 50 25 60 39 22 29 27
112 10 184 -6 28 -14 64 -17 80 -4 17 -15 48 -25 70 -11 22 -22 53 -25 68 -3
15 -10 25 -15 22 -6 -3 -10 5 -10 19 0 14 -4 28 -10 31 -5 3 -10 15 -10 26 0
11 -4 17 -10 14 -5 -3 -10 1 -10 9 0 19 -40 106 -57 124 -6 6 -15 21 -18 32
-6 18 -15 20 -106 20 -92 0 -99 -1 -99 -20 0 -11 3 -20 8 -20 4 0 18 -24 32
-53 14 -28 31 -56 38 -60 6 -4 12 -14 12 -21 0 -18 24 -66 33 -66 4 0 7 -7 7
-15 0 -8 4 -15 8 -15 5 0 15 -19 22 -42 7 -24 16 -52 20 -63 5 -11 14 -38 20
-60 7 -22 18 -53 26 -68 33 -66 15 -98 -71 -128 -22 -8 -49 -22 -59 -31 -11
-10 -28 -18 -38 -18 -10 0 -18 -4 -18 -9 0 -5 -29 -21 -65 -36 -36 -16 -65
-32 -65 -36 0 -4 -16 -13 -35 -20 -19 -7 -35 -16 -35 -20 0 -4 -11 -10 -25
-13 -14 -4 -34 -14 -43 -24 -10 -9 -36 -26 -57 -37 -59 -30 -124 -98 -127
-132 -4 -58 3 -79 37 -116 19 -21 35 -45 35 -53 0 -8 5 -14 10 -14 6 0 10 -11
10 -25 0 -14 5 -25 10 -25 17 0 11 -50 -7 -57 -9 -4 -30 -19 -47 -35 -16 -15
-32 -28 -37 -28 -9 0 -53 -36 -82 -67 -18 -21 -30 -23 -109 -23 -48 0 -88 3
-88 6 0 11 29 34 44 34 19 0 76 57 77 78 4 67 -26 162 -51 162 -6 0 -10 9 -10
20 0 11 -4 20 -10 20 -5 0 -10 7 -10 16 0 8 -4 13 -8 10 -5 -3 -15 10 -22 29
-8 19 -17 35 -21 35 -4 0 -20 21 -35 48 -15 26 -30 49 -33 52 -3 3 -13 19 -21
35 -8 17 -17 32 -20 35 -14 14 -39 68 -33 74 3 3 1 6 -5 6 -7 0 -12 9 -12 20
0 11 -9 30 -20 43 -41 45 -46 53 -60 97 -8 25 -18 48 -23 51 -4 3 -9 15 -10
27 0 11 -5 18 -9 16 -4 -3 -8 4 -8 15 0 12 -5 21 -11 21 -6 0 -9 16 -7 37 2
28 9 41 27 49 13 7 26 16 30 21 3 4 18 14 33 22 15 8 36 21 46 30 27 23 60 41
77 41 8 0 15 4 15 8 0 5 21 20 48 33 26 13 51 29 55 36 4 7 17 13 27 13 11 0
29 9 40 20 11 11 26 20 34 20 8 0 16 3 18 8 2 4 26 18 53 31 28 13 58 27 67
32 10 5 25 9 33 9 8 0 15 6 15 13 0 8 22 19 50 27 27 7 47 17 44 22 -3 4 4 8
15 8 11 0 23 5 26 10 4 7 -62 10 -192 9 l-198 -1 -56 -31z m3214 -765 c-3 -86
-10 -162 -15 -169 -5 -7 -14 -54 -18 -105 -14 -141 -38 -282 -50 -286 -5 -2
-10 -19 -10 -38 0 -39 -21 -114 -32 -114 -5 0 -8 -7 -8 -15 0 -14 -36 -85 -49
-95 -3 -3 -19 -32 -36 -65 -16 -33 -33 -61 -37 -63 -5 -2 -8 -12 -8 -23 0 -10
-4 -19 -10 -19 -5 0 -10 -7 -10 -15 0 -8 -3 -15 -7 -15 -10 0 -33 -49 -33 -68
0 -7 -4 -10 -10 -7 -5 3 -10 -1 -10 -9 0 -9 -4 -16 -10 -16 -5 0 -10 -7 -10
-15 0 -9 -7 -18 -15 -21 -8 -4 -15 -12 -15 -19 0 -18 -40 -86 -62 -106 -10 -9
-18 -24 -18 -33 0 -9 -7 -16 -16 -16 -8 0 -13 -4 -10 -8 3 -5 -4 -18 -14 -30
-11 -12 -20 -24 -20 -28 0 -4 -7 -14 -15 -23 -43 -48 -52 -59 -58 -74 -9 -24
-26 -21 -49 8 -11 14 -26 25 -34 25 -8 0 -26 11 -39 24 -13 14 -34 27 -45 31
-11 3 -20 13 -20 21 0 8 -6 14 -14 14 -8 0 -29 13 -47 29 -18 17 -45 35 -61
42 -15 6 -25 15 -22 20 3 5 -2 9 -10 9 -9 0 -21 9 -28 20 -7 11 -18 20 -25 20
-7 0 -13 4 -13 9 0 5 -11 12 -25 15 -14 4 -25 11 -25 16 0 6 -7 10 -15 10 -8
0 -15 5 -15 10 0 6 -7 10 -15 10 -8 0 -15 5 -15 10 0 6 -7 10 -15 10 -8 0 -15
5 -15 10 0 6 -9 10 -20 10 -11 0 -20 5 -20 10 0 6 -10 10 -22 10 -12 0 -18 3
-15 7 8 8 -62 52 -83 53 -19 0 -43 37 -30 45 6 3 10 15 10 26 0 10 3 19 8 19
4 0 18 20 32 45 14 25 28 45 32 45 4 0 15 16 24 35 9 19 20 35 25 35 5 0 14
11 21 24 16 29 61 86 108 136 90 97 120 131 120 140 0 6 3 9 8 8 4 -2 28 19
55 45 26 26 49 47 52 47 3 0 28 22 55 49 28 27 63 55 78 62 15 6 39 27 52 45
14 17 28 30 31 28 4 -2 12 3 19 11 7 8 19 15 26 15 8 0 14 5 14 10 0 6 6 10
13 10 6 0 26 13 42 28 17 15 51 40 78 55 26 15 47 31 47 35 0 4 25 18 55 32
30 14 55 28 55 33 0 4 7 7 15 7 8 0 15 4 15 9 0 5 27 20 60 33 33 12 60 29 60
35 0 7 9 13 20 13 11 0 20 5 20 10 0 6 9 10 21 10 11 0 18 4 14 9 -6 10 32 19
52 13 8 -2 10 -46 6 -160z m-6191 -42 c14 -10 28 -16 32 -13 3 3 6 2 6 -4 0
-5 18 -18 40 -28 22 -10 40 -22 40 -27 0 -4 9 -8 20 -8 11 0 20 -4 20 -10 0
-5 7 -10 16 -10 8 0 12 -4 9 -10 -3 -5 3 -10 14 -10 12 0 21 -4 21 -10 0 -5 6
-10 14 -10 19 0 67 -26 60 -33 -3 -3 5 -11 18 -18 12 -6 27 -18 31 -25 4 -8
15 -14 22 -14 8 0 15 -4 15 -10 0 -5 5 -10 10 -10 12 0 73 -41 78 -52 2 -5 7
-8 12 -8 8 0 32 -19 92 -72 16 -16 34 -28 39 -28 5 0 9 -5 9 -11 0 -12 25 -39
37 -39 4 0 21 -14 37 -30 16 -17 33 -30 38 -30 4 0 8 -6 8 -13 0 -8 11 -20 25
-27 14 -7 25 -20 25 -28 0 -9 3 -13 6 -9 6 6 34 -16 34 -28 0 -3 11 -16 25
-29 14 -13 25 -28 25 -34 0 -6 9 -14 20 -17 11 -3 20 -11 20 -17 0 -5 14 -23
30 -38 17 -15 30 -32 30 -37 0 -4 18 -28 39 -52 22 -25 38 -48 36 -51 -2 -4 5
-13 16 -20 10 -8 19 -20 19 -27 0 -7 4 -13 9 -13 5 0 14 -13 21 -30 7 -16 16
-30 21 -30 5 0 9 -7 9 -15 0 -9 9 -25 20 -37 11 -12 20 -27 20 -34 0 -14 -81
-74 -100 -74 -6 0 -13 -7 -16 -15 -4 -8 -12 -15 -20 -15 -8 0 -14 -4 -14 -10
0 -5 -4 -10 -10 -10 -9 0 -35 -19 -65 -47 -8 -7 -16 -13 -19 -13 -6 0 -10 -3
-86 -70 -25 -22 -48 -40 -52 -40 -3 0 -70 -62 -147 -139 l-142 -138 -34 34
c-19 19 -35 37 -35 39 0 7 -42 64 -72 98 -26 28 -29 34 -28 52 1 3 -9 14 -22
24 -13 11 -19 19 -15 20 4 0 -2 10 -13 23 -11 12 -41 54 -65 92 -24 39 -48 75
-53 80 -4 6 -15 25 -22 43 -8 17 -18 32 -21 32 -3 0 -17 25 -30 55 -13 30 -26
55 -30 55 -3 0 -14 18 -24 40 -10 22 -22 40 -27 40 -4 0 -8 9 -8 20 0 11 -4
20 -10 20 -5 0 -10 9 -10 20 0 11 -4 20 -10 20 -5 0 -10 9 -10 20 0 11 -3 20
-7 20 -28 0 -33 63 -33 388 0 312 10 462 30 462 4 0 19 -9 32 -20z m3498 -844
c333 -30 450 -45 450 -57 0 -4 37 -10 83 -13 83 -5 201 -21 182 -25 -5 -2 22
-11 60 -21 39 -10 84 -23 100 -28 17 -6 55 -18 85 -28 56 -17 111 -38 142 -55
10 -5 27 -9 38 -9 11 0 20 -4 20 -10 0 -5 6 -10 13 -10 6 -1 37 -14 67 -30 30
-16 70 -36 88 -45 17 -8 32 -20 32 -25 0 -6 9 -10 20 -10 11 0 20 -4 20 -10 0
-5 7 -10 15 -10 8 0 15 -4 15 -9 0 -5 8 -11 18 -14 25 -8 76 -40 84 -53 4 -6
21 -17 38 -24 16 -7 28 -15 26 -19 -3 -4 8 -12 23 -19 15 -7 37 -21 49 -32 12
-11 24 -20 28 -20 4 0 14 -8 23 -18 9 -9 39 -35 66 -56 62 -49 79 -64 132
-118 103 -104 173 -184 173 -196 0 -7 5 -10 10 -7 6 3 10 -1 10 -9 0 -8 10
-23 23 -33 12 -10 33 -35 46 -55 12 -21 27 -38 32 -38 5 0 9 -6 9 -13 0 -7 10
-24 23 -37 47 -51 147 -207 147 -231 0 -11 4 -18 9 -15 8 5 39 -75 33 -83 -2
-2 0 -7 5 -10 5 -3 19 -28 32 -56 12 -27 29 -63 36 -78 8 -16 15 -35 15 -43 0
-8 4 -22 9 -32 5 -9 15 -38 23 -64 7 -27 16 -48 20 -48 4 0 8 -6 8 -13 0 -7
11 -35 25 -63 22 -44 30 -81 54 -246 4 -25 12 -52 18 -60 6 -7 14 -40 18 -73
4 -33 11 -87 15 -120 4 -33 8 -55 10 -50 2 6 7 -28 12 -75 4 -47 10 -114 14
-150 3 -36 11 -68 18 -72 15 -10 14 -256 -2 -283 -10 -18 -11 -16 -7 12 4 34
-11 55 -21 29 -3 -8 -12 -12 -20 -9 -17 6 -64 -4 -64 -15 0 -15 58 -30 69 -19
12 12 12 11 16 -51 2 -23 -1 -40 -6 -36 -5 3 -9 -5 -9 -17 0 -38 -14 -11 -20
39 -4 41 -8 47 -30 51 -14 1 -28 8 -32 15 -6 8 -8 7 -8 -3 0 -7 -6 -11 -15 -7
-9 3 -15 0 -15 -9 0 -8 -4 -15 -9 -15 -20 0 -41 -32 -36 -53 3 -13 -3 -34 -15
-52 -17 -25 -20 -27 -20 -10 -1 28 -40 -52 -40 -81 0 -12 -9 -41 -20 -65 -11
-24 -20 -57 -20 -72 0 -16 -4 -26 -9 -23 -10 7 -36 -357 -28 -405 15 -98 18
-113 21 -116 6 -7 52 -6 74 1 13 5 22 3 22 -3 0 -6 -9 -11 -20 -11 -16 0 -20
-7 -21 -32 -1 -18 -1 -38 0 -44 1 -7 -5 -14 -14 -18 -8 -3 -15 -12 -15 -21 0
-9 -9 -25 -20 -37 -11 -12 -20 -28 -20 -37 0 -8 -3 -12 -6 -8 -7 6 -34 -17
-34 -28 0 -4 -15 -22 -33 -41 -41 -43 -49 -53 -66 -86 -8 -15 -18 -25 -23 -22
-4 3 -8 1 -8 -4 0 -15 -121 -132 -152 -148 -16 -8 -41 -28 -57 -44 -15 -17
-31 -30 -35 -30 -3 0 -25 -18 -47 -40 -23 -22 -48 -40 -55 -40 -8 0 -14 -6
-14 -14 0 -8 -13 -20 -29 -27 -16 -7 -27 -17 -25 -21 3 -4 -1 -8 -9 -8 -8 0
-18 -7 -21 -16 -3 -8 -10 -13 -14 -10 -5 3 -15 -4 -22 -15 -8 -10 -20 -19 -27
-19 -16 0 -55 -21 -65 -34 -3 -6 -43 -22 -87 -36 -45 -15 -78 -30 -74 -33 3
-4 -10 -7 -30 -7 -20 0 -37 -4 -37 -10 0 -5 -13 -10 -30 -10 -16 0 -30 -4 -30
-9 0 -10 -41 -18 -135 -27 -33 -4 -66 -11 -73 -17 -18 -15 -32 -15 -452 -28
-290 -9 -439 -9 -605 0 -121 6 -384 12 -585 12 -201 1 -396 6 -435 11 -102 13
-368 27 -627 34 -130 3 -225 10 -222 15 3 5 -30 9 -75 9 -44 0 -82 4 -85 9 -3
5 -23 11 -43 14 -64 9 -197 39 -215 48 -10 5 -29 9 -42 9 -14 0 -31 7 -40 15
-8 8 -24 15 -35 15 -11 0 -23 4 -26 10 -3 5 -17 10 -31 10 -13 0 -24 5 -24 10
0 6 -9 10 -19 10 -11 0 -23 5 -26 10 -3 5 -15 10 -26 10 -10 0 -19 5 -19 10 0
6 -6 10 -13 10 -7 0 -32 9 -55 20 -22 11 -48 20 -56 20 -8 0 -17 4 -20 8 -3 5
-38 21 -78 37 -40 15 -75 31 -78 34 -3 3 -18 13 -35 21 -16 8 -39 23 -49 33
-11 9 -26 17 -33 17 -8 0 -16 7 -19 15 -4 8 -13 15 -20 15 -15 0 -27 8 -65 43
-10 9 -25 17 -32 17 -7 0 -19 9 -27 20 -8 11 -18 20 -22 20 -14 0 -94 75 -221
208 -17 17 -35 32 -39 32 -4 0 -8 6 -8 14 0 7 -13 26 -28 43 -33 34 -128 168
-113 159 5 -4 12 -2 16 4 3 5 0 10 -8 10 -17 0 -39 24 -31 33 4 3 16 0 27 -8
12 -8 25 -11 31 -6 17 13 106 22 106 11 0 -6 -12 -11 -27 -11 -20 -1 -22 -3
-9 -6 10 -3 48 -2 83 2 52 5 62 9 53 20 -9 10 -7 14 7 18 10 2 6 4 -8 3 -19
-2 -25 2 -22 11 3 7 11 13 19 13 8 0 14 5 14 11 0 7 12 9 35 5 28 -6 34 -4 29
8 -4 9 2 16 18 19 17 3 15 5 -10 6 -32 1 -33 2 -30 45 2 24 6 42 11 39 4 -2 7
1 7 6 0 6 6 11 13 11 7 0 24 8 37 17 14 10 34 17 45 16 16 -1 16 -1 3 3 -19 6
-24 39 -8 49 6 3 15 26 21 49 14 55 41 58 50 6 4 -19 7 45 7 142 0 124 -4 189
-14 215 -7 21 -13 54 -12 73 l1 35 6 -35 7 -35 7 35 c5 21 4 36 -3 38 -5 2
-10 11 -10 19 0 13 -3 13 -15 3 -12 -10 -15 -9 -15 4 0 13 -6 16 -22 11 -19
-5 -20 -4 -8 5 10 8 11 13 4 16 -6 3 -9 16 -6 29 2 15 0 25 -7 25 -6 0 -11 -6
-12 -12 0 -10 -2 -10 -6 0 -4 10 -8 9 -19 -5 -12 -17 -13 -17 -14 -1 0 11 -5
15 -15 12 -16 -7 -20 -30 -7 -36 5 -1 12 -15 16 -30 5 -21 3 -28 -9 -28 -8 0
-15 -4 -15 -10 0 -5 9 -10 20 -10 11 0 20 -4 20 -10 0 -5 -18 -10 -40 -10
l-40 0 0 49 c0 34 4 51 15 55 20 7 19 26 -5 56 -25 32 -25 43 0 30 11 -6 17
-16 14 -25 -5 -12 3 -15 37 -14 l44 1 -35 12 c-34 13 -34 14 -10 18 25 5 25 5
-2 7 -31 1 -38 17 -10 24 14 4 14 5 -3 6 -25 2 -68 37 -61 50 4 5 -3 7 -16 3
-14 -3 -19 -2 -14 6 7 12 -11 17 -42 13 -8 -1 -26 6 -40 16 -15 9 -30 16 -35
15 -4 -1 -16 7 -27 18 -14 14 -33 20 -68 20 -26 0 -63 4 -82 10 -24 7 -50 6
-87 -2 -49 -12 -52 -14 -56 -48 -2 -19 -4 9 -5 63 -1 63 2 96 8 92 6 -4 10 12
10 41 0 65 21 176 37 192 7 7 13 24 13 36 0 13 7 40 15 59 8 20 15 47 15 61 0
13 7 31 15 40 8 8 15 26 15 40 0 14 5 26 10 26 6 0 10 11 10 25 0 14 3 25 8
25 11 0 32 51 32 76 0 13 5 26 10 29 6 3 10 15 10 26 0 11 4 18 9 15 4 -3 16
12 26 34 10 22 22 40 27 40 4 0 8 9 8 20 0 11 5 20 11 20 5 0 8 4 5 8 -3 5 6
25 19 44 13 20 35 61 49 91 13 30 32 64 43 74 10 10 28 40 41 66 12 27 27 54
32 60 35 43 58 77 75 110 11 20 23 37 27 37 4 0 15 15 24 32 9 18 29 44 44 58
14 14 35 41 46 60 10 19 31 46 47 60 15 13 27 30 27 38 0 7 4 10 10 7 5 -3 10
1 10 9 0 9 4 16 8 16 5 0 14 12 21 26 6 15 14 24 18 21 3 -4 19 13 36 36 17
23 42 53 57 67 14 14 29 33 33 43 3 9 13 17 22 17 8 0 15 4 15 8 0 14 141 156
180 182 19 13 42 31 51 39 27 27 53 45 82 60 15 8 27 18 27 23 0 4 7 8 15 8 8
0 15 5 15 11 0 5 14 15 30 20 17 6 30 17 30 25 0 8 9 14 20 14 11 0 20 4 20 8
0 5 16 14 35 22 20 8 43 22 52 32 9 10 25 18 35 18 11 0 17 4 14 8 -4 7 20 20
67 36 10 3 15 10 12 16 -4 6 5 10 19 10 14 0 26 5 26 10 0 6 9 10 20 10 11 0
20 5 20 10 0 6 7 10 15 10 8 0 15 4 15 9 0 5 10 11 23 15 13 3 36 16 51 29 16
14 47 30 70 38 22 7 50 18 61 25 11 7 40 18 65 25 25 7 49 16 54 21 6 4 25 8
42 8 18 0 36 5 39 10 3 6 24 10 45 10 21 0 41 4 44 9 3 5 45 14 93 21 49 6
107 16 130 21 23 5 77 9 120 10 43 0 98 7 123 14 63 19 692 13 930 -9z m-3685
-2903 c-8 -44 -11 -40 -19 22 -4 34 -3 43 3 30 9 -19 10 -18 12 5 l2 25 4 -24
c3 -13 2 -39 -2 -58z m474 48 c12 -8 9 -11 -12 -17 -16 -3 -31 -4 -34 0 -4 3
2 6 13 7 18 0 18 1 -1 9 l-20 9 20 0 c11 0 27 -3 34 -8z m-512 -203 c-2 -13
-4 -3 -4 22 0 25 2 35 4 23 2 -13 2 -33 0 -45z m6363 8 c0 -2 -7 -9 -15 -16
-13 -11 -14 -10 -9 4 5 14 24 23 24 12z m87 -177 l2 -71 -20 23 c-24 27 -25
68 -1 97 9 12 17 22 17 22 0 0 1 -32 2 -71z m-6407 -29 c0 -5 -2 -10 -4 -10
-3 0 -8 5 -11 10 -3 6 -1 10 4 10 6 0 11 -4 11 -10z m6382 -106 l-6 -59 -7 60
c-4 32 -12 61 -18 63 -7 2 -7 8 2 16 22 25 37 -14 29 -80z m-6385 54 c-3 -7
-5 -2 -5 12 0 14 2 19 5 13 2 -7 2 -19 0 -25z m37 -50 c-3 -10 -1 -18 5 -18 6
0 11 5 11 12 0 6 2 9 5 7 2 -3 1 -20 -4 -37 -6 -20 -6 -32 0 -32 10 0 12 -53
2 -63 -3 -4 -12 10 -20 30 -15 45 -18 156 -3 133 5 -8 7 -23 4 -32z m116 -52
c0 -74 -3 -95 -15 -100 -29 -11 -12 -146 18 -146 17 0 -2 -14 -23 -17 -12 -2
-20 3 -20 12 0 8 -11 38 -25 67 -26 53 -32 75 -15 48 9 -13 10 -13 10 0 0 8
-4 21 -9 29 -5 8 -7 21 -4 28 10 26 23 -8 23 -59 0 -26 5 -50 10 -53 6 -4 10
13 10 44 0 27 5 53 10 56 6 3 10 46 10 96 0 53 4 89 10 89 6 0 10 -38 10 -94z
m-83 2 c-3 -8 -6 -5 -6 6 -1 11 2 17 5 13 3 -3 4 -12 1 -19z m6283 -52 c0 -14
-5 -28 -11 -31 -15 -10 -18 -4 -12 28 7 34 23 36 23 3z m-33 -136 c-3 -27 -13
-62 -22 -77 -16 -28 -16 -27 -11 29 4 53 19 98 33 98 3 0 3 -22 0 -50z m-67
-97 c-3 -62 3 -72 10 -18 l7 50 -2 -59 c-1 -42 -6 -62 -19 -71 -9 -7 -18 -22
-19 -33 0 -11 -5 -18 -11 -15 -5 3 -7 -5 -4 -21 3 -14 2 -26 -3 -26 -16 0 -6
105 12 136 11 17 19 45 19 63 0 17 3 31 6 31 3 0 5 -17 4 -37z m-6108 -28 c-6
-51 -16 -49 -27 3 -6 30 -5 33 12 30 13 -3 17 -11 15 -33z m15 -67 c-3 -8 -6
-5 -6 6 -1 11 2 17 5 13 3 -3 4 -12 1 -19z m5975 -110 c-7 -7 -12 -8 -12 -2 0
14 12 26 19 19 2 -3 -1 -11 -7 -17z m33 -18 c3 -5 1 -10 -4 -10 -6 0 -11 5
-11 10 0 6 2 10 4 10 3 0 8 -4 11 -10z m-5855 -446 c20 -18 27 -29 20 -34 -7
-4 0 -12 19 -19 16 -7 32 -20 36 -29 5 -14 7 -14 15 -2 6 9 10 10 10 3 0 -15
61 -73 78 -73 6 0 12 -10 13 -22 1 -22 1 -22 9 2 5 17 8 19 9 8 1 -10 5 -18
10 -18 5 0 12 -11 15 -25 4 -14 12 -25 20 -25 7 0 23 -9 35 -19 19 -17 51 -35
206 -118 74 -40 104 -53 124 -53 42 0 151 -70 151 -97 0 -3 -20 -23 -45 -45
-25 -22 -43 -43 -40 -47 2 -5 -2 -17 -10 -27 -11 -15 -14 -16 -15 -4 0 12 -2
13 -9 1 -10 -15 -81 -7 -81 9 0 13 -517 13 -522 0 -2 -6 -37 -13 -78 -15 -41
-3 -93 -9 -115 -15 -22 -5 -55 -10 -73 -10 -20 0 -31 -4 -27 -10 3 -5 5 -10 3
-11 -2 0 -23 -3 -48 -6 -25 -3 -47 -9 -50 -13 -3 -4 -31 -10 -62 -14 -32 -4
-58 -12 -58 -17 0 -5 -20 -9 -44 -9 -26 0 -51 -6 -60 -15 -8 -9 -33 -15 -58
-15 -24 0 -48 -4 -54 -10 -16 -16 -225 -15 -235 1 -15 23 -10 59 7 59 9 0 14
6 11 13 -2 6 8 28 23 47 15 19 31 46 35 60 l9 25 7 -25 c6 -23 7 -22 8 9 1 22
11 45 31 68 16 18 30 38 30 44 0 6 4 7 10 4 5 -3 10 3 10 14 0 12 5 21 10 21
6 0 10 5 10 11 0 7 13 26 30 43 16 17 43 47 60 66 19 22 28 28 24 15 -5 -15
-1 -13 15 8 12 15 29 27 36 27 8 0 17 5 21 12 5 8 0 9 -17 5 l-24 -6 24 20
c13 10 32 19 42 19 12 0 23 10 29 25 5 14 18 28 27 32 10 3 38 20 63 37 25 17
48 30 53 28 4 -1 7 7 7 17 0 14 10 21 33 26 17 4 38 12 45 17 8 8 12 6 12 -5
0 -8 -6 -18 -12 -20 -9 -4 -8 -6 2 -6 8 -1 20 8 25 20 10 21 23 29 105 67 60
27 73 27 110 -4z m475 -729 c22 -7 54 -10 71 -8 31 5 61 -16 36 -25 -7 -2 -12
-8 -12 -13 0 -5 -31 -40 -70 -78 -38 -38 -70 -75 -70 -81 0 -6 -11 -22 -25
-35 -13 -14 -27 -42 -31 -63 -7 -42 -40 -102 -56 -102 -6 0 -8 -7 -4 -15 3 -8
0 -14 -7 -12 -7 1 -13 -13 -15 -36 -2 -20 -7 -35 -11 -33 -4 3 -13 1 -21 -5
-11 -6 -12 -9 -2 -9 7 0 10 -5 7 -10 -4 -6 -11 -8 -16 -5 -5 4 -14 -6 -20 -22
-5 -15 -13 -30 -17 -33 -14 -10 -32 -50 -33 -72 0 -13 -3 -17 -6 -10 -7 17
-23 15 -23 -3 0 -7 -7 -18 -16 -23 -12 -6 -15 -18 -12 -36 3 -14 1 -26 -3 -26
-5 0 -9 -13 -9 -29 0 -25 -3 -29 -22 -25 -13 2 -17 2 -10 -2 6 -3 12 -14 12
-25 0 -16 -7 -19 -50 -19 -35 0 -49 4 -47 13 1 7 -6 11 -18 10 -31 -4 -76 8
-69 18 3 5 -4 9 -15 9 -11 0 -26 7 -35 15 -9 9 -33 15 -61 15 -31 0 -47 5 -51
15 -4 8 -17 15 -30 15 -13 0 -24 4 -24 9 0 5 -14 12 -30 16 -16 4 -30 12 -30
19 0 8 -12 11 -35 8 -25 -3 -36 0 -41 12 -3 9 -17 16 -30 16 -15 0 -24 6 -24
15 0 13 -18 20 -42 16 -5 0 -8 6 -8 14 0 9 -9 15 -25 15 -14 0 -25 3 -25 8 0
4 -23 18 -50 31 -28 13 -61 35 -75 49 -14 13 -25 22 -25 18 0 -3 -9 3 -20 14
-11 11 -20 26 -20 32 0 7 -14 14 -30 15 -17 1 -44 11 -59 23 -16 11 -32 20
-36 20 -3 0 -26 19 -50 43 -36 33 -45 49 -45 75 0 29 3 32 20 27 23 -7 28 10
6 18 -9 4 -12 14 -9 26 6 25 39 27 110 10 34 -9 62 -9 116 0 40 7 115 19 167
28 52 8 100 21 106 29 6 7 35 16 65 20 30 3 59 13 66 22 10 12 15 13 28 2 8
-7 15 -8 15 -3 0 14 62 33 108 33 33 0 40 3 36 15 -5 12 3 15 39 15 27 0 52 6
61 15 18 19 112 21 119 3 3 -10 13 -9 41 5 20 9 48 17 61 17 14 0 25 5 25 10
0 14 253 1 305 -15z"/>
<path d="M4138 6055 c-3 -3 -68 -11 -145 -17 -220 -16 -253 -19 -253 -28 0 -5
-30 -11 -67 -15 -93 -9 -173 -25 -173 -35 0 -4 -15 -10 -32 -13 -78 -14 -97
-20 -92 -28 3 -5 -9 -9 -26 -9 -16 0 -39 -4 -50 -10 -11 -5 -29 -14 -40 -20
-11 -5 -29 -10 -40 -10 -11 0 -20 -7 -20 -15 0 -8 -9 -15 -20 -15 -23 0 -70
-20 -88 -37 -7 -7 -24 -16 -38 -19 -13 -3 -24 -10 -24 -15 0 -5 -12 -9 -26 -9
-14 0 -23 -4 -19 -10 3 -5 0 -10 -8 -10 -19 0 -77 -30 -77 -39 0 -4 -18 -16
-40 -26 -23 -10 -54 -33 -70 -52 -16 -18 -34 -33 -40 -33 -5 0 -10 -4 -10 -10
0 -5 -6 -10 -12 -10 -7 0 -24 -14 -37 -30 -13 -17 -29 -30 -37 -30 -8 0 -14
-4 -14 -9 0 -6 -27 -38 -60 -72 -33 -34 -60 -70 -60 -80 0 -11 -6 -19 -13 -19
-7 0 -23 -18 -36 -40 -12 -22 -25 -40 -29 -40 -4 0 -13 -15 -21 -32 -8 -18
-17 -35 -20 -38 -12 -10 -31 -50 -31 -65 0 -8 -7 -15 -15 -15 -8 0 -15 -8 -15
-19 0 -10 -7 -24 -15 -31 -8 -7 -15 -19 -15 -27 0 -7 -7 -16 -15 -19 -8 -4
-15 -12 -15 -20 0 -8 -4 -14 -10 -14 -5 0 -10 -9 -10 -21 0 -11 -4 -17 -10
-14 -5 3 -10 -1 -10 -10 0 -9 -9 -25 -20 -37 -11 -12 -20 -28 -20 -35 0 -7 -4
-13 -9 -13 -5 0 -11 -10 -15 -23 -3 -12 -14 -32 -25 -44 -28 -29 -61 -90 -61
-110 0 -9 -3 -14 -6 -10 -8 8 -74 -117 -74 -138 0 -9 -7 -18 -15 -21 -8 -4
-15 -15 -15 -25 0 -10 -4 -19 -10 -19 -5 0 -10 -5 -10 -10 0 -6 -9 -30 -20
-52 -11 -23 -20 -52 -20 -64 0 -13 -5 -26 -10 -29 -6 -3 -10 -21 -10 -40 0
-18 -4 -35 -8 -37 -13 -5 -52 -215 -52 -278 0 -30 -7 -100 -15 -155 -17 -115
-19 -319 -4 -385 6 -25 14 -88 19 -140 9 -90 21 -181 36 -277 4 -24 11 -43 15
-43 5 0 9 -10 9 -22 0 -22 21 -89 30 -98 3 -3 12 -25 19 -50 16 -58 34 -100
43 -100 3 0 11 -15 18 -34 6 -19 22 -47 35 -62 14 -16 25 -35 25 -41 0 -7 5
-13 10 -13 6 0 10 -6 10 -13 0 -8 9 -22 20 -32 11 -10 20 -24 20 -32 0 -7 6
-13 14 -13 7 0 19 -13 26 -30 7 -16 16 -27 21 -24 5 3 9 0 9 -6 0 -7 15 -26
33 -43 17 -16 31 -34 30 -39 -2 -4 0 -8 5 -8 4 0 21 -12 37 -26 17 -14 42 -33
58 -42 15 -9 27 -21 28 -27 0 -5 42 -30 93 -55 51 -25 91 -48 89 -52 -2 -5 4
-8 13 -8 22 0 87 -22 94 -32 3 -4 24 -14 45 -22 22 -7 39 -19 38 -25 -2 -6 10
-11 26 -11 17 0 33 -5 36 -10 3 -6 17 -10 30 -10 13 0 27 -4 30 -10 3 -5 17
-10 31 -10 13 0 24 -4 24 -9 0 -8 43 -15 190 -30 41 -4 71 -9 65 -11 -5 -1 8
-6 30 -10 22 -4 66 -15 98 -24 32 -9 71 -16 87 -16 15 0 30 -5 32 -12 4 -11
38 -16 206 -34 35 -4 58 -10 51 -15 -7 -4 17 -10 52 -13 127 -11 174 -17 194
-26 11 -4 121 -16 245 -26 279 -23 1162 -32 1365 -15 276 24 328 30 334 39 3
5 21 12 39 16 81 16 92 19 92 26 0 5 13 11 29 15 16 3 50 19 75 36 26 16 50
29 54 29 4 0 14 9 22 20 8 11 19 20 25 20 13 0 44 29 65 60 8 13 25 32 37 43
12 11 35 39 50 61 15 23 36 48 45 57 10 9 18 21 18 28 0 6 5 11 10 11 6 0 10
9 10 20 0 11 6 20 13 20 6 0 23 24 37 53 14 28 28 54 31 57 3 3 11 21 19 40 8
19 16 37 20 40 10 9 30 61 30 80 0 10 3 20 8 22 4 2 20 37 36 78 16 41 32 77
36 80 4 3 10 19 13 35 9 48 25 101 27 90 1 -5 10 22 20 60 10 39 27 99 38 135
11 36 26 90 32 120 7 30 17 66 24 79 15 33 13 624 -3 629 -6 2 -11 16 -11 30
0 43 -30 177 -41 180 -5 2 -9 20 -9 40 0 35 -14 90 -31 124 -5 10 -9 29 -9 43
0 14 -4 25 -10 25 -5 0 -10 11 -10 25 0 14 -4 25 -10 25 -5 0 -10 14 -10 30 0
17 -3 30 -8 30 -4 0 -13 18 -19 40 -11 34 -30 77 -77 180 -6 14 -13 27 -16 30
-12 12 -30 51 -30 64 0 8 -3 16 -7 18 -11 4 -53 87 -53 104 0 8 -7 14 -15 14
-8 0 -15 9 -15 20 0 11 -4 20 -10 20 -5 0 -10 9 -10 20 0 11 -4 20 -10 20 -5
0 -10 7 -10 15 0 8 -4 15 -10 15 -5 0 -10 7 -10 16 0 9 -8 24 -18 33 -9 9 -24
30 -32 46 -8 17 -23 39 -34 51 -10 12 -18 24 -17 28 2 7 -10 22 -46 61 -13 13
-23 29 -23 35 0 6 -4 8 -10 5 -5 -3 -10 0 -10 8 0 8 -10 25 -22 39 -13 13 -34
41 -48 61 -14 20 -28 37 -32 37 -5 0 -8 6 -8 13 0 6 -18 30 -40 51 -22 22 -40
44 -40 50 0 11 -220 226 -232 226 -4 0 -30 16 -57 35 -26 19 -53 35 -60 35 -6
0 -11 5 -11 10 0 6 -6 10 -14 10 -7 0 -19 7 -26 15 -7 8 -16 12 -21 9 -5 -3
-9 0 -9 5 0 6 -12 11 -26 11 -14 0 -23 4 -20 9 3 4 -13 14 -35 21 -22 8 -43
18 -47 24 -14 21 -63 38 -149 53 -18 3 -33 9 -33 14 0 5 -11 9 -24 9 -14 0
-28 5 -31 10 -3 6 -21 10 -39 10 -17 0 -37 5 -43 11 -5 5 -52 16 -103 24 -51
8 -96 18 -99 23 -7 12 -80 20 -286 32 -259 15 -509 22 -517 15z m648 -518 c28
-1 58 -8 66 -15 11 -9 55 -12 152 -11 134 1 151 -1 151 -23 0 -6 19 -18 43
-25 34 -12 42 -19 42 -39 0 -14 4 -23 9 -20 5 4 11 3 13 -2 1 -4 22 -22 46
-41 24 -18 41 -35 40 -37 -6 -5 -152 -34 -175 -34 -13 0 -23 -4 -23 -9 0 -8
-11 -11 -102 -27 -21 -3 -38 -9 -38 -13 0 -4 -16 -13 -35 -20 -19 -7 -41 -18
-48 -24 -18 -17 -55 -37 -68 -37 -14 0 -39 -25 -39 -39 0 -6 -5 -11 -10 -11
-6 0 -16 -11 -22 -25 -6 -14 -17 -25 -24 -25 -7 0 -19 -10 -25 -22 -7 -13 -20
-30 -30 -39 -10 -9 -16 -18 -14 -21 3 -3 -1 -11 -10 -18 -8 -7 -15 -19 -15
-27 0 -8 -4 -11 -10 -8 -5 3 -10 -2 -10 -12 0 -10 -9 -29 -19 -42 l-18 -23
-16 41 c-9 22 -22 41 -29 41 -6 0 -8 3 -5 7 8 7 -36 87 -65 117 -10 11 -18 24
-18 29 0 5 -8 17 -17 26 -10 9 -34 36 -53 61 -34 45 -74 82 -85 80 -3 -1 -19
13 -35 30 -15 16 -35 30 -44 30 -9 0 -16 5 -16 10 0 6 -9 10 -19 10 -10 0 -21
7 -25 15 -3 8 -16 15 -29 15 -31 0 -69 36 -65 63 3 19 55 54 104 70 11 4 37
14 59 23 78 32 113 34 531 21z m-721 -371 c11 -4 32 -12 47 -18 15 -6 25 -14
22 -19 -3 -5 -1 -9 5 -9 13 0 101 -87 101 -100 0 -6 7 -10 15 -10 13 0 17 -6
14 -26 0 -3 8 -13 18 -22 10 -9 24 -29 32 -44 8 -16 18 -28 23 -28 4 0 8 -7 8
-15 0 -8 4 -15 10 -15 5 0 17 -15 25 -32 9 -18 26 -51 38 -74 12 -22 30 -60
40 -85 10 -24 22 -52 28 -61 5 -10 9 -34 9 -53 0 -19 5 -35 10 -35 6 0 10 -62
10 -165 0 -103 -4 -165 -10 -165 -5 0 -10 -20 -10 -44 0 -25 -4 -48 -10 -51
-5 -3 -10 -15 -10 -26 0 -10 -3 -19 -8 -19 -4 0 -13 -14 -21 -31 -8 -18 -33
-52 -57 -77 -24 -25 -44 -49 -44 -54 0 -4 -4 -8 -10 -8 -5 0 -22 -13 -37 -30
-14 -16 -33 -30 -42 -30 -9 0 -25 -11 -35 -25 -10 -14 -24 -25 -30 -25 -7 0
-28 -12 -47 -26 -19 -14 -50 -33 -69 -42 -19 -9 -37 -19 -40 -22 -11 -12 -62
-30 -86 -30 -14 0 -23 -4 -20 -9 22 -34 -417 -41 -469 -7 -13 9 -33 16 -44 16
-11 0 -23 5 -26 10 -3 6 -19 10 -36 10 -16 0 -29 5 -29 10 0 6 -9 10 -19 10
-11 0 -23 5 -26 10 -3 6 -15 10 -26 10 -10 0 -19 5 -19 10 0 6 -9 10 -20 10
-11 0 -20 4 -20 8 0 5 -18 17 -40 27 -42 19 -130 99 -130 119 0 6 20 29 45 51
25 22 45 45 45 53 0 7 15 19 34 27 18 8 36 21 39 30 4 9 19 15 36 15 22 0 35
8 47 25 11 17 25 25 45 25 23 0 31 7 44 35 9 24 25 40 48 50 19 8 37 23 40 35
7 29 24 25 42 -10 24 -46 45 -37 60 24 9 35 15 40 55 52 88 27 164 12 185 -34
5 -12 13 -22 17 -22 5 0 8 -7 8 -16 0 -18 24 -44 41 -44 6 0 19 -8 28 -17 25
-28 58 -43 91 -43 18 0 29 -4 25 -10 -11 -18 152 -17 169 1 6 5 18 9 28 9 23
0 54 17 93 52 16 16 36 28 43 28 7 0 11 4 7 9 -3 5 3 17 12 27 44 43 63 105
63 205 0 52 -4 99 -8 105 -5 5 -17 30 -26 57 -10 26 -22 45 -27 41 -5 -3 -9 2
-9 10 0 9 -16 26 -35 38 -19 13 -35 28 -35 33 0 6 -21 17 -47 24 -27 8 -50 18
-53 22 -3 4 -46 9 -95 11 -90 3 -90 3 -87 28 2 14 8 30 13 36 6 8 -2 17 -26
28 -25 12 -35 23 -35 40 0 13 -7 29 -15 36 -20 17 -19 33 5 55 11 10 20 28 20
39 1 25 22 106 32 121 7 12 43 12 73 1z m1446 -97 c16 -17 29 -35 29 -40 0 -5
5 -8 12 -6 6 1 16 -7 22 -18 6 -11 23 -41 37 -65 14 -25 29 -57 33 -72 3 -16
13 -28 20 -28 9 0 12 -7 9 -20 -3 -13 -14 -20 -29 -20 -13 0 -24 -4 -24 -10 0
-5 -7 -10 -15 -10 -8 0 -15 -4 -15 -9 0 -5 -9 -12 -19 -16 -28 -9 -111 -91
-111 -110 0 -9 -4 -14 -9 -11 -10 6 -20 -19 -32 -79 -4 -22 -11 -55 -15 -73
-8 -42 29 -192 48 -192 4 0 8 -6 8 -13 0 -19 76 -97 94 -97 9 0 16 -4 16 -10
0 -5 9 -10 20 -10 11 0 20 -4 20 -10 0 -5 11 -10 24 -10 14 0 28 -4 31 -10 3
-5 44 -10 90 -10 46 0 87 5 90 10 3 6 15 10 26 10 10 0 19 5 19 10 0 6 7 10
15 10 8 0 15 5 15 10 0 6 9 10 21 10 11 0 17 5 14 10 -3 6 -2 10 4 10 13 0 61
48 61 60 0 6 4 10 9 10 8 0 18 23 27 63 5 20 44 66 44 51 0 -5 5 -1 11 9 14
24 27 21 31 -8 2 -14 7 -25 12 -25 5 1 14 -9 20 -21 11 -22 53 -53 89 -65 9
-4 17 -12 17 -19 0 -8 9 -16 19 -20 36 -11 41 -28 25 -82 -8 -28 -22 -57 -30
-63 -7 -7 -14 -21 -14 -32 0 -10 -15 -34 -33 -52 -18 -18 -41 -49 -51 -69 -9
-21 -21 -37 -26 -37 -6 0 -10 -6 -10 -14 0 -7 -13 -27 -30 -44 -16 -18 -30
-36 -30 -42 0 -6 -21 -30 -46 -54 -71 -67 -83 -76 -99 -76 -8 0 -15 -3 -15 -8
0 -12 -95 -52 -123 -52 -14 0 -33 -7 -42 -16 -14 -14 -43 -17 -206 -16 -104 1
-197 5 -207 11 -9 5 -53 14 -97 21 -44 7 -90 19 -102 26 -12 8 -36 14 -52 14
-16 0 -33 5 -36 10 -3 6 -17 10 -31 10 -14 0 -22 4 -19 10 4 6 -6 10 -24 10
-16 0 -33 5 -36 10 -3 6 -14 10 -23 10 -9 0 -33 14 -52 30 -19 17 -42 32 -51
35 -16 5 -59 77 -59 99 0 7 -7 26 -15 43 -49 98 -74 447 -40 559 8 27 15 62
15 78 0 40 21 106 31 100 5 -3 9 4 9 16 0 11 4 28 9 38 5 9 14 29 20 45 23 57
35 77 70 120 20 24 45 56 56 70 11 15 25 27 32 27 7 0 13 5 13 10 0 6 7 10 15
10 8 0 15 5 15 10 0 6 6 10 14 10 8 0 21 6 28 13 29 27 59 36 176 53 23 4 45
11 48 15 3 5 50 9 106 9 99 0 100 0 129 -31z m-1776 -729 c4 -6 -10 -9 -37 -9
l-43 2 35 7 c19 4 36 8 37 9 1 0 5 -3 8 -9z m2819 -365 c9 -14 21 -23 26 -20
6 4 10 -2 10 -11 0 -10 4 -31 9 -48 27 -90 41 -180 41 -253 l0 -83 -35 0 c-19
0 -35 5 -35 10 0 6 -35 10 -85 10 -50 0 -85 -4 -85 -10 0 -5 -9 -10 -19 -10
-11 0 -23 -5 -27 -11 -3 -6 -22 -18 -41 -26 -19 -8 -37 -23 -40 -33 -3 -11 -9
-17 -14 -14 -5 2 -14 -4 -21 -16 -7 -11 -16 -20 -20 -20 -13 0 -56 -49 -79
-90 -12 -22 -26 -40 -31 -40 -4 0 -8 -7 -8 -15 0 -15 -19 -55 -31 -65 -22 -18
-39 -374 -20 -393 6 -6 11 -22 11 -35 0 -13 4 -20 10 -17 6 3 10 -3 10 -14 0
-11 5 -23 10 -26 6 -3 10 -13 10 -22 0 -34 166 -214 225 -243 45 -23 43 -53
-9 -135 -25 -38 -50 -75 -56 -82 -5 -7 -10 -17 -10 -23 0 -5 -4 -10 -10 -10
-5 0 -10 -7 -10 -15 0 -8 -6 -15 -14 -15 -8 0 -17 -9 -21 -19 -3 -11 -26 -38
-50 -60 -25 -23 -45 -46 -45 -51 0 -5 -11 -12 -25 -16 -14 -3 -25 -10 -25 -14
0 -4 -15 -15 -32 -24 -18 -9 -40 -21 -48 -26 -8 -4 -53 -18 -100 -31 -47 -12
-94 -25 -105 -30 -41 -16 -236 -22 -780 -21 -564 0 -829 7 -806 21 11 7 -243
38 -399 48 -36 3 -70 9 -76 14 -6 5 -45 14 -85 20 -127 18 -139 21 -139 30 0
5 -18 9 -39 9 -22 0 -43 5 -46 10 -3 6 -26 10 -51 10 -24 0 -44 4 -44 9 0 4
-21 12 -47 15 -85 13 -157 25 -205 34 -27 5 -48 7 -48 5 0 -2 -10 3 -22 11
-12 9 -32 16 -45 16 -27 0 -73 20 -73 32 0 4 -9 8 -20 8 -11 0 -20 5 -20 10 0
6 -9 10 -19 10 -11 0 -23 5 -26 10 -3 6 -22 10 -42 10 -20 0 -33 3 -30 7 8 7
-38 33 -59 33 -8 0 -17 7 -20 15 -4 8 -10 12 -15 9 -5 -3 -9 4 -9 14 0 11 8
22 18 26 27 9 51 27 105 79 49 47 117 134 117 149 0 4 13 37 30 73 16 36 30
72 30 79 0 7 7 31 16 52 14 32 16 62 11 169 -3 78 -10 131 -16 133 -6 2 -11
19 -11 37 0 19 -4 37 -10 40 -5 3 -10 14 -10 24 0 40 -65 143 -127 201 -35 33
-67 60 -72 60 -5 0 -11 3 -13 8 -6 14 -134 72 -160 72 -14 0 -28 5 -30 10 -2
7 -46 12 -108 13 -106 1 -146 -7 -119 -24 11 -7 10 -9 -3 -9 -27 0 -48 11 -48
26 0 8 -8 14 -19 14 -16 0 -17 5 -10 50 8 50 30 95 42 84 3 -3 12 3 19 15 7
12 21 21 31 21 10 0 16 4 13 9 -16 25 230 44 260 20 6 -5 44 -12 85 -15 55 -5
86 -2 122 10 26 9 49 16 51 16 3 0 21 -16 40 -35 20 -19 43 -35 52 -35 8 0 12
-4 9 -10 -3 -5 -1 -10 6 -10 6 0 19 -8 28 -19 9 -10 31 -26 49 -35 17 -9 32
-21 32 -26 0 -6 9 -10 20 -10 11 0 20 -4 20 -10 0 -5 6 -10 13 -10 18 0 67
-24 67 -32 0 -5 9 -8 20 -8 19 0 59 -18 70 -31 9 -11 138 -49 165 -49 15 0 36
-6 48 -12 12 -7 64 -15 114 -18 51 -3 98 -11 103 -16 8 -8 4 -22 -14 -49 -14
-21 -26 -42 -26 -46 0 -5 -7 -9 -15 -9 -8 0 -15 -5 -15 -11 0 -6 -7 -17 -15
-25 -8 -9 -15 -24 -15 -34 0 -10 -4 -21 -9 -25 -14 -8 -41 -65 -41 -86 0 -9
-4 -19 -10 -21 -29 -10 -34 -202 -6 -231 7 -7 19 -27 27 -44 7 -18 17 -33 21
-33 5 0 8 -5 8 -11 0 -11 45 -55 108 -107 19 -15 46 -38 60 -52 15 -14 41 -32
57 -40 17 -8 39 -23 49 -32 11 -10 25 -18 32 -18 7 0 14 -4 16 -8 4 -11 98
-62 114 -62 8 0 14 -4 14 -10 0 -5 13 -10 29 -10 17 0 33 -4 36 -10 3 -6 22
-10 41 -10 19 0 34 -4 34 -10 0 -5 11 -10 25 -10 14 0 25 -4 25 -9 0 -5 10
-11 23 -14 12 -3 47 -14 77 -25 30 -11 88 -25 128 -32 39 -6 70 -16 66 -21 -6
-11 469 -12 480 -1 4 4 62 14 129 23 139 19 170 30 248 90 90 68 184 161 205
202 8 15 19 27 24 27 6 0 10 6 10 13 0 6 14 28 30 47 16 19 30 41 30 48 0 6 4
12 8 12 8 0 43 78 57 128 4 12 11 20 16 17 5 -4 9 35 9 94 0 60 -4 101 -10
101 -5 0 -16 16 -24 35 -18 42 -107 135 -130 135 -9 0 -16 7 -16 15 0 8 -7 15
-15 15 -8 0 -15 5 -15 10 0 6 -6 10 -14 10 -11 0 -32 27 -23 31 1 0 47 5 102
10 113 10 215 25 200 29 -10 3 52 17 117 27 21 3 42 11 49 19 6 8 19 14 29 14
24 0 102 45 93 53 -3 4 3 7 15 7 12 0 22 5 22 10 0 6 5 10 11 10 6 0 16 6 23
13 7 6 25 21 39 32 15 11 27 25 27 32 0 7 5 13 11 13 12 0 69 60 69 72 0 4 6
13 13 20 7 7 26 31 42 53 17 22 33 42 36 45 3 3 12 20 20 38 8 17 17 32 21 32
5 0 8 6 8 13 0 23 31 80 59 109 29 30 47 26 75 -17z m-1967 -189 c22 -49 18
-56 -35 -56 -27 0 -51 3 -55 6 -9 10 4 34 19 34 8 0 14 5 14 10 0 15 23 38 35
37 5 -1 15 -15 22 -31z m248 -276 c3 -5 16 -10 29 -10 12 0 40 -8 62 -19 21
-10 57 -25 79 -32 22 -8 44 -20 48 -26 4 -7 13 -13 20 -13 7 0 25 -11 41 -25
16 -14 33 -25 38 -25 4 0 8 -7 8 -15 0 -8 5 -15 10 -15 6 0 10 -7 10 -16 0 -8
4 -13 8 -10 5 3 15 -6 22 -19 7 -14 16 -25 20 -25 3 0 32 -25 64 -55 31 -30
61 -55 65 -55 4 0 24 -16 44 -35 20 -19 42 -35 47 -35 6 0 10 -7 10 -15 0 -9
-9 -15 -24 -15 -14 0 -28 -4 -31 -10 -3 -5 -28 -10 -55 -10 -27 0 -52 -4 -55
-10 -3 -5 -44 -10 -89 -10 -46 0 -107 -5 -136 -10 -30 -6 -166 -11 -304 -11
-138 -1 -240 -5 -226 -9 21 -7 18 -8 -17 -9 -24 -1 -43 4 -43 9 0 6 -49 10
-127 10 -136 0 -333 19 -333 32 0 4 -16 8 -35 8 -19 0 -35 5 -35 10 0 6 -8 10
-17 10 -10 0 -29 9 -43 20 -14 11 -34 20 -45 20 -11 0 -35 13 -54 29 -30 24
-32 30 -22 49 6 12 16 22 21 22 6 0 10 7 10 15 0 8 5 15 11 15 5 0 8 4 5 8 -3
5 10 25 29 45 19 21 35 41 35 45 0 13 30 43 68 70 51 36 163 92 183 92 11 0
19 5 19 10 0 6 17 10 38 10 20 0 44 5 52 10 21 13 587 13 595 0z m-1108 -596
c-3 -3 -12 -4 -19 -1 -8 3 -5 6 6 6 11 1 17 -2 13 -5z m33 -24 c0 -5 6 -10 14
-10 8 0 31 -8 53 -19 52 -25 104 -41 136 -41 14 0 30 -6 34 -14 9 -15 62 -23
218 -32 66 -4 93 -9 80 -15 -11 -4 111 -8 270 -8 160 0 281 4 270 8 -12 5 36
11 120 15 115 5 341 21 353 25 2 1 0 6 -3 11 -4 6 17 10 54 10 63 0 78 -13 46
-40 -8 -7 -12 -17 -8 -23 3 -6 1 -7 -5 -3 -7 4 -17 -3 -24 -18 -6 -14 -15 -26
-19 -26 -4 0 -17 -16 -29 -35 -12 -19 -25 -35 -30 -35 -4 0 -22 -13 -40 -30
-18 -16 -41 -30 -51 -30 -10 0 -24 -9 -31 -20 -7 -11 -23 -20 -35 -20 -13 0
-23 -4 -23 -10 0 -6 -30 -10 -71 -10 -38 0 -68 -4 -65 -9 13 -21 -368 -30
-454 -10 -25 6 -60 13 -78 16 -18 3 -35 9 -38 14 -3 5 -18 9 -35 9 -16 0 -29
4 -29 8 0 4 -21 13 -47 20 -27 8 -56 18 -65 23 -10 5 -27 9 -37 9 -11 0 -22 4
-25 9 -3 5 -28 14 -55 21 -28 6 -55 18 -62 26 -6 8 -20 14 -30 14 -19 0 -83
32 -104 53 -6 7 -35 28 -63 47 -29 19 -52 40 -52 47 0 6 -9 15 -20 18 -11 3
-20 11 -20 16 0 5 -6 9 -13 9 -7 0 -18 9 -25 20 -11 18 -10 20 13 20 14 0 25
-4 25 -10z"/>
<path d="M1482 3150 c0 -14 2 -19 5 -12 2 6 2 18 0 25 -3 6 -5 1 -5 -13z"/>
<path d="M1450 2751 c0 -5 -3 -16 -6 -25 -4 -11 -1 -16 10 -16 10 0 16 9 16
25 0 14 -4 25 -10 25 -5 0 -10 -4 -10 -9z"/>
<path d="M1367 2633 c-4 -3 -7 -19 -7 -35 0 -40 24 -31 28 10 3 30 -6 41 -21
25z"/>
<path d="M1288 2483 c7 -3 16 -2 19 1 4 3 -2 6 -13 5 -11 0 -14 -3 -6 -6z"/>
<path d="M6871 2444 c0 -11 3 -14 6 -6 3 7 2 16 -1 19 -3 4 -6 -2 -5 -13z"/>
<path d="M2878 1423 c7 -3 16 -2 19 1 4 3 -2 6 -13 5 -11 0 -14 -3 -6 -6z"/>
<path d="M900 1129 c0 -5 5 -7 10 -4 6 3 10 8 10 11 0 2 -4 4 -10 4 -5 0 -10
-5 -10 -11z"/>
<path d="M52 1830 c0 -14 2 -19 5 -12 2 6 2 18 0 25 -3 6 -5 1 -5 -13z"/>
</g>
</svg>
